PathFileType	4	(X/Y/Z)	C:/Users/beibeiliu/ov580/test_trc/capture2\sequence.15_training_dense_right.trc
DataRate	CameraRate	NumFrames	NumMarkers	Units	OrigDataRate	OrigDataStartFrame	OrigNumFrames
120	120	8	19	mm	120	138	367
Frame#	Time	ThumbCMC			ThumbMCP			ThumbIP			ThumbTip			IndexMCP			IndexPIP			IndexTip			MiddleMCP			MiddlePIP			MiddleTip			RingMCP			RingPIP			RingTip			PinkyMCP			PinkyPIP			PinkyTip			BackHand1			BackHand2			BackHand3	
		X0	Y0	Z0	X1	Y1	Z1	X2	Y2	Z2	X3	Y3	Z3	X4	Y4	Z4	X5	Y5	Z5	X6	Y6	Z6	X7	Y7	Z7	X8	Y8	Z8	X9	Y9	Z9	X10	Y10	Z10	X11	Y11	Z11	X12	Y12	Z12	X13	Y13	Z13	X14	Y14	Z14	X15	Y15	Z15	X16	Y16	Z16	X17	Y17	Z17	X18	Y18	Z18	
137	1.14167	190.454	87.5428	-10.7588	198.142	105.236	-31.531	213.808	113.805	-52.6255	220.525	122.431	-67.7564	169.498	114.042	-77.4205	165.822	138.842	-61.9702	167.171	120.358	-33.1224	148.353	112.073	-75.8002	149.845	137.699	-54.0472	157.663	115.754	-28.5228	129.573	111.85	-71.9144	135.382	132.552	-47.694	147.865	109.641	-25.7577	110.945	91.8055	-73.5999	101.429	106.267	-86.1737	88.7128	123.23	-102.378	134.287	59.0218	-41.7285	143.011	50.115	-13.4693	171.31	62.1405	-30.621	
138	1.15	189.212	84.6617	-11.8636	197.885	102.371	-29.5215	212.264	112.001	-51.0871	223.716	120.817	-67.7101	166.663	110.726	-77.1653	163.801	136.217	-59.5985	163.861	116.016	-33.618	146.837	109.928	-76.9343	147.335	133.015	-53.5766	151.624	112.833	-28.1368	129.051	104.969	-70.3094	130.376	128.673	-46.8966	146.45	107.2	-26.0625	108.991	87.4621	-72.8339	100.346	102.762	-86.003	87.8589	118.115	-103.074	137.004	56.2318	-44.1103	138.203	46.666	-13.7404	168.23	58.5792	-27.221	
139	1.15833	184.014	81.042	-11.3247	192.139	99.0188	-32.0208	209.019	109.753	-51.1047	216.081	117.696	-67.747	168.678	108.253	-77.0721	162.175	132.806	-59.1126	163.305	114.775	-34.297	145.585	105.64	-76.9683	143.61	129.581	-53.4555	149.876	107.757	-28.016	129.405	101.547	-70.2658	127.607	124.59	-50.2722	142.371	101.909	-25.5462	104.117	83.6458	-71.2212	98.0139	97.1071	-83.4235	85.1754	113.958	-101.552	136.375	53.7257	-43.4289	138.571	42.2233	-12.944	166.192	54.4439	-28.4108	
140	1.16667	182.852	77.6938	-14.632	194.865	96.9689	-30.0222	205.049	107.063	-48.7211	214.507	114.719	-68.8721	165.456	102.759	-76.185	155.27	128.419	-58.7536	162.351	109.868	-33.1927	143.433	99.9345	-76.0847	141.616	126.925	-54.1813	147.131	103.692	-26.7019	121.855	99.4078	-71.0216	126.94	121.739	-49.9011	138.227	98.1416	-24.3562	103.888	77.9232	-67.6233	95.2344	92.6423	-81.6643	81.9535	110.933	-102.089	130.355	49.6778	-39.724	136.985	41.104	-14.1958	168.151	52.5262	-29.5268	
141	1.175	185.325	75.6867	-11.703	190.179	94.925	-33.2822	204.794	105.181	-52.9955	209.748	114.31	-69.3627	162.186	104.051	-76.9578	150.476	125.233	-60.1947	155.599	105.202	-34.1534	137.003	96.6063	-74.1674	138.647	123.156	-54.4395	146.431	101.473	-26.5045	123.583	97.5653	-69.8467	122.577	116.688	-45.9672	137.4	99.0291	-24.7445	98.7871	73.3266	-65.7689	89.3112	91.3965	-81.783	76.0675	104.137	-95.2563	133.96	46.3632	-42.9425	135.458	34.3074	-11.7219	162.589	48.3166	-30.0189	
142	1.18333	184.127	74.3146	-16.5111	192.034	93.6651	-30.6113	201.374	105.472	-53.0925	206.122	115.36	-67.5354	156.023	99.4733	-75.8851	149.151	122.992	-59.2793	154.611	104.003	-31.8903	134.335	95.9213	-73.5782	130.31	117.964	-53.0001	146.011	93.2816	-25.4829	117.813	94.4914	-68.0131	120.115	113.137	-48.1897	136.352	90.1647	-22.3981	97.7323	69.1932	-66.219	89.0854	83.7789	-78.8212	70.407	97.4651	-94.0133	133.651	42.0063	-38.1918	135.214	30.3526	-15.0031	166.817	45.4678	-31.3393	
143	1.19167	180.826	71.7542	-16.0438	188.674	92.5953	-28.4294	198.754	107.3	-51.9572	204.438	117.407	-70.2744	154.903	96.046	-73.4133	146.009	120.929	-54.2733	150.74	98.538	-30.5403	132.1	91.0333	-71.1745	127.227	114.969	-49.4872	145.808	91.4886	-23.8623	116.592	85.4473	-65.2953	116.212	107.949	-38.948	134.003	88.8731	-20.6595	97.0465	63.1652	-61.4502	84.6039	78.8939	-73.6491	72.6341	93.3408	-92.7136	134.555	38.3317	-42.6246	140.758	28.1502	-8.45501	164.737	45.5862	-29.8168	
144	1.2	182.313	69.6062	-9.80543	188.104	93.3081	-27.6835	193.3	106.616	-49.3122	200.384	119.115	-65.492	150.786	97.2452	-72.358	139.27	116.942	-51.3591	151.906	99.9815	-27.696	133.319	88.0721	-68.4802	126.663	111.13	-45.2947	143.95	90.9335	-21.5462	113.737	84.5823	-62.8357	111.856	103.149	-40.7947	133.029	82.9606	-17.7369	94.5662	58.4951	-59.7811	82.1134	75.9562	-74.3066	70.5286	86.532	-85.6977	134.003	36.8419	-40.0187	144.499	23.8136	-7.55119	166.933	41.4013	-30.9243	
